<svg xmlns="http://www.w3.org/2000/svg" viewBox="0 0 431 590">
<rect width="431" height="590" fill="#05070a"/>
<g fill="#fff">
<path d="M0 0h431v590H0z" fill="#b52b3f"/>
<path d="M215.5 38C112 38 38 104 38 194h355c0-90-74-156-177.5-156z" fill="#fff"/>
<circle cx="215.5" cy="194" r="125" fill="#05070a"/>
<path d="M116 194c0-55 44-99 99.5-99S315 139 315 194h-44c0-31-25-56-55.5-56s-55.5 25-55.5 56z" fill="#fff"/>
<path d="M0 194h431v396H0z" fill="#fff"/>
<path d="M0 194h431v38H0z" fill="#05070a"/>
<text x="215.5" y="510" text-anchor="middle" font-family="Arial,sans-serif" font-size="70" font-weight="900" fill="#05070a">82</text>
</g></svg>